<svg width="256" height="256" viewBox="0 0 256 256" fill="none" xmlns="http://www.w3.org/2000/svg">
  <!-- Gradient Definitions -->
  <defs>
    <linearGradient id="bgGradient" x1="0" y1="0" x2="1" y2="1">
      <stop offset="0%" stop-color="#AAC4F5"/>
      <stop offset="100%" stop-color="#8CA9FF"/>
    </linearGradient>

    <linearGradient id="barGradient" x1="0" y1="0" x2="0" y2="1">
      <stop offset="0%" stop-color="#FFF8DE"/>
      <stop offset="100%" stop-color="#FFF2C6"/>
    </linearGradient>
  </defs>

  <!-- Main Rounded Shape -->
  <rect x="24" y="32" width="208" height="176" rx="40" fill="url(#bgGradient)"/>

  <!-- Bar Chart -->
  <rect x="56" y="120" width="18" height="48" rx="6" fill="url(#barGradient)"/>
  <rect x="82" y="96" width="18" height="72" rx="6" fill="url(#barGradient)"/>
  <rect x="108" y="72" width="18" height="96" rx="6" fill="url(#barGradient)"/>

  <!-- Notification Bell -->
  <path d="M96 56C96 48 104 42 112 42C120 42 128 48 128 56V64H96V56Z" fill="#FFF2C6"/>
  <circle cx="112" cy="68" r="4" fill="#8CA9FF"/>

  <!-- Chat Bubble -->
  <rect x="132" y="76" width="88" height="64" rx="20" fill="#FFF8DE"/>
  <path d="M160 140L148 156V140H160Z" fill="#FFF8DE"/>

  <!-- Rupee Symbol -->
  <path d="M170 98H194M170 108H188C194 108 198 104 198 98C198 92 194 88 188 88H170V122"
        stroke="#8CA9FF" stroke-width="6" stroke-linecap="round" stroke-linejoin="round"/>

  <!-- AI Nodes -->
  <circle cx="200" cy="48" r="6" fill="#AAC4F5"/>
  <circle cx="216" cy="40" r="5" fill="#AAC4F5"/>
  <circle cx="216" cy="56" r="5" fill="#AAC4F5"/>
  <path d="M200 48L216 40M200 48L216 56" stroke="#AAC4F5" stroke-width="2"/>
</svg>
